<?xml version="1.0" encoding="utf-8"?>
<svg version="1.1" id="Layer_1" xmlns="http://www.w3.org/2000/svg" xmlns:xlink="http://www.w3.org/1999/xlink" x="0px" y="0px"
	 width="84px" height="84px" viewBox="0 0 84 84" enable-background="new 0 0 84 84" xml:space="preserve">
<path fill="none" stroke="#FFFFFF" stroke-width="2" stroke-miterlimit="10" d="M5.43,44.409c-0.613-0.513-1.495-0.82-1.331-2.715
	c0.161-1.897,0.394-4.414,0.959-5.755c0.567-1.34,2.352-4.944,2.409-6.503c0.059-1.56,0.272-2.242,1.568-2.323
	c1.295-0.083,1.89,0.181,3.147-0.849c1.258-1.028,2.949-3.042,6.158-2.875c3.209,0.169,6.67,2.803,7.846,3.609
	c1.476,1.01,2.974,2.583,3.134,3.01c0.334,0.89-0.49,2.514,1.248,4.722c1.148,1.457,5.479,9.86,13.282,9.86
	c2.202,0,3.854-0.113,5.129-0.313c3.247-0.51,4.061-1.585,5.319-2.812c0.408-0.397,0.875-0.771,1.275-1.07
	c0.536-0.398,1.357-0.692,1.597-0.711c2.698-0.213,8.317-0.711,10.181-0.315c2.027,0.433,9.502,4.787,10.609,5.246
	c1.105,0.46,1.479,1.561,0.998,2.991c-0.381,1.134-1.951,5.016-2.479,6.213c-0.529,1.199-1.41,1.629-3.078,1.23
	c-1.669-0.399-4.109-1.047-5.098-1.285c-0.989-0.236-1.878-0.607-2.149,0.055c-0.271,0.664,0.365,2.993,0.273,4.174
	c-0.093,1.178-0.812,1.656-1.55,1.936c-0.807,0.304-4.586,0.368-5.921,0.444c-2.046,0.118-21.533,0.208-23.63,0.243
	c-1.664,0.027-2.09-0.021-2.443-0.753s-1.229-2.313-2.465-2.939c-1.236-0.625-1.994-0.389-3.768-0.271
	c-0.96,0.062-5.169,0.147-9.091-0.159c-3.399-0.265-6.639-1.083-8.027-1.534c-0.9-0.292-1.783-0.476-1.649-1.545
	c0.134-1.068,2.055-3.029,2.106-3.366c0.059-0.382,0.089-0.731,0.05-1.038c-0.08-0.577-0.399-0.639-1.28-1.627
	C8.091,46.633,6.042,44.92,5.43,44.409z"/>
</svg>
