<?xml version="1.0" encoding="utf-8"?>
<svg version="1.1" id="Layer_1" xmlns="http://www.w3.org/2000/svg" xmlns:xlink="http://www.w3.org/1999/xlink" x="0px" y="0px"
	 width="84px" height="84px" viewBox="0 0 84 84" enable-background="new 0 0 84 84" xml:space="preserve">
<path fill="none" stroke="#FFFFFF" stroke-width="2" stroke-miterlimit="10" d="M69.18,55.196
	c-2.275,1.102-12.574,3.468-18.889,5.082c-4.205,1.053-7.811,2.092-12.016,3.145c-0.488,0.106-1.831,0.869-2.291,0.64
	c0,0-1.157-1.566-1.537-2.274c0,0-0.709-1.409-3.1-4.435l-3.779-5.212c0,0-6.312-11.694-8.523-16.761
	C17.573,32.013,8.561,23.961,8.561,23.961s-1.19-1.402,0.861-1.741c2.342-0.387,8.107-0.361,10.479-0.266
	c1.57,0.063,5.66,0.989,5.66,0.989l8.215,1.514l8.129,0.882l7.03,0.329c0,0,2.521,0.223,1.603,2.336c0,0-2.356,5.333-7.889,5.996
	c0,0-1.133,0.501-7.109-0.676c0,0-4.722-1.365-6.461-0.678c0,0-2.705,1.099-2.543,4.195c0,0,0.103,1.442,0.538,2.346
	c0,0,3.061,5.518,4.566,7.206c0.981,1.101,2.837,1.964,5.905-0.415c0,0,1.226-1.846,2.135-2.652c1.125-0.998,3.686-2.246,6.222-2.13
	c4.944,0.224,19.278-0.378,19.278-0.378s3.165-0.204,4.286-0.014c0.892,0.15,2.271,0.509,2.981,2.223l2.38,7.667
	c0,0,0.737,1.349-0.804,2.107C74.023,52.802,72.406,54.008,69.18,55.196z"/>
</svg>
