<?xml version="1.0" encoding="utf-8"?>
<!DOCTYPE svg PUBLIC "-//W3C//DTD SVG 1.1//EN" "http://www.w3.org/Graphics/SVG/1.1/DTD/svg11.dtd">
<svg version="1.1" id="Layer_1" xmlns="http://www.w3.org/2000/svg" xmlns:xlink="http://www.w3.org/1999/xlink" x="0px" y="0px"
	 width="84px" height="84px" viewBox="0 0 84 84" enable-background="new 0 0 84 84" xml:space="preserve">
<g id="circuit">
	<path fill="none" stroke="#FFFFFF" stroke-width="2" stroke-miterlimit="10" d="M29.604,41.327
		c3.447-0.904,7.244-1.854,9.181-2.287c1.062-0.236,0.889-0.904,0.842-1.067c-0.275-0.954,0.861-1.104,1.191-1.165
		c2.324-0.44,4.496-0.604,8.668-0.443c1.153,0.047,0.933-0.693,0.919-1.272c-0.02-1.196-0.051-1.665-0.001-4.128
		c0.024-1.237,0.493-1.25,0.994-1.265c8.098-0.293,20.099-0.093,25.231,0.194c1.562,0.091,1.361,0.993,1.361,0.993l-0.024,7.631
		c0,1.73-0.255,3.716-1.749,3.716c-1.761,0-8.795,0.028-11.189-0.225c-2.82-0.302-18.523-0.339-18.523-0.339
		c-0.931-0.029-2.782-0.043-5.423,0.026c-1.728,0.046-2.924,0.317-4.802,0.786c-5.512,1.38-7.146,1.029-8.962,3.068
		c-1.381,1.555-2.021,2.823-3.604,3.266c-1.903,0.531-3.42,1.166-4.467,1.478c-1.008,0.3-1.608,0.658-2.308,1.294
		c-2.061,1.865-3.031,3.087-3.998,2.819c-0.616-0.175-1.077-1.196-1.325-1.526c-1.022-1.332-2.727-3.872-5.252-7.264
		c-0.994-1.337,0.306-0.6,0.848-3.845c0.128-0.742,0.403-1.905,0.922-3.123c0.116-0.271,3.007-4.402,4.597-5.802
		c1.267-1.108,10.98-1.523,12.044-0.828c0.281,0.185,0.235,0.582,0.196,1.035c-0.048,0.588-0.034,0.587,0,0.739
		c0.205,0.931,1.772,0.309,1.902,0.981c0.039,0.197,0.027,0.198,0.027,0.63c0,0.459,0.256,0.521,0.671,0.55
		c0.439,0.03,0.328,0.604,0.299,0.832c-0.165,1.312-0.358,2.942-0.361,2.965c-0.052,0.407-0.159,1.292-0.158,1.559
		c0.001,0.154,0.046,0.279,0.182,0.344C27.916,41.837,29.066,41.467,29.604,41.327z"/>
</g>
</svg>
