<?xml version="1.0" encoding="utf-8"?>
<svg version="1.1" id="Layer_1" xmlns="http://www.w3.org/2000/svg" xmlns:xlink="http://www.w3.org/1999/xlink" x="0px" y="0px"
	 width="84px" height="84px" viewBox="0 0 84 84" enable-background="new 0 0 84 84" xml:space="preserve">
<path fill="none" stroke="#FFFFFF" stroke-width="2" stroke-miterlimit="10" d="M26.367,60.997c30.037,0,30.027,0,35.84,0
	c4.559,0,6.43,0.317,7.867-0.339c1.436-0.655,1.467-0.655,2.217-1.03c0.748-0.374,0.873-1.013,0.656-1.411
	c-0.219-0.399-18.232-29.964-19.045-31.399c-0.812-1.437-1.936-2.436-2.902-2.436c-0.969,0-2.219,0.773-2.811,1.824
	c-0.594,1.048-2.652,5.512-3.027,6.418c-0.375,0.905-0.344,3.553,0.623,4.96c0.969,1.409,2.529,2.844,5.277,3.375
	c2.746,0.531,6.211,4.214,6.211,6.43c0,2.217-0.279,3.56-2.715,3.56s-22.385-0.031-24.82-0.095
	c-2.434-0.062-8.834-0.604-9.584-0.724c-0.748-0.118-0.936-0.555-0.562-1.055c0.377-0.5,0.875-1.092,1.531-1.873
	c0.656-0.78,1.902-1.592,4.059-1.342c2.152,0.25,12.955,1.529,14.203,1.686c1.25,0.156,1.875-0.587,1.875-1.246
	c0-0.659-6.562-5.114-7.617-5.904c-1.572-1.175-2.135-2.009-2.01-3.715c0.125-1.707,0.533-2.983,0.043-3.91
	c-0.906-1.709-1.969-1.928-3.967-2.646c-1.998-0.717-5.525-5.087-6.43-6.087c-0.906-1-0.365-0.375-0.906-1
	c-0.541-0.625-1.541-2.112-2.643-2.112c-1.104,0-1.34,0.711-1.707,2.165c-0.334,1.321-3.049,20.958-3.516,23.862
	c-0.469,2.903-0.361,2.075-0.469,2.903c-0.111,0.827,0.061,1.78,0.451,2.873c0.391,1.092,0.932,2.455,1.119,2.996
	c0.188,0.542,0.104,0.958-0.209,1.332c-0.311,0.375-1.83,2.269-2.186,2.727c-0.354,0.458-0.52,1.289,0.709,1.289
	C13.15,61.075,24.275,60.997,26.367,60.997z"/>
</svg>
