<?xml version="1.0" encoding="utf-8"?>
<svg version="1.1" id="Layer_1" xmlns="http://www.w3.org/2000/svg" xmlns:xlink="http://www.w3.org/1999/xlink" x="0px" y="0px"
	 width="84px" height="84px" viewBox="0 0 84 84" enable-background="new 0 0 84 84" xml:space="preserve">
<path fill="none" stroke="#FFFFFF" stroke-width="2" stroke-miterlimit="10" d="M30.491,37.411c0,0,2.368-2.768,7.041-5.377
	c4.302-2.399,16.889-8.105,17.934-8.655c1.076-0.567,2.035-0.67,2.505-0.22c0.47,0.451,1.08,1.651,2.366,1.08
	c1.284-0.571,1.699-0.706,2.321-0.968c0.622-0.266,1.542-0.326,2.435,0.409c0.894,0.734,4.922,5.294,5.564,5.991
	c0.643,0.698,1.008,1.657,0.264,2.272c-0.508,0.419-1.508,0.264-2.149-0.434c-0.643-0.698-2.006-1.841-2.644-2.371
	c-0.639-0.531-1.521-0.721-2.924,0.228c-1.402,0.95-7.492,3.796-9.074,4.164c-1.583,0.369-4.697,1.396-4.485,3.565
	c0.192,1.968,0.611,3.293,0.964,4.08c0.351,0.788,2.074,1.739,4.016,2.05c1.848,0.296,4.625,1.117,6.514,1.413
	c1.889,0.295,3.498,1.182,3.564,2.435c0.068,1.254-0.799,1.773-0.773,3.027c0.026,1.256,1.891,2.346,3.488,2.773
	c1.599,0.427,2.273,0.664,3.16,1.021c0.885,0.358,1.105,0.897,1.115,1.398c0.011,0.502-1.023,2.992-1.631,4.009
	c-0.605,1.016-2.463,2.226-5.625,1.12c-3.16-1.104-5.918-2.972-7.582-4.569c-1.665-1.596-2.693-4.94-5.031-6.557
	c-0.764-0.527-5.398-2.094-7.121-2.477c-1.724-0.382-3.146-0.435-4.961,0.857c-1.814,1.293-4.748,3.027-6.949,3.826
	c-2.199,0.799-4.033,1.088-4.7,1.269c-0.665,0.181-1.001,0.146-1.251,0.151c-0.252,0.006-0.265-0.622-0.27-0.872
	c-0.006-0.252-0.307-0.663-0.682-0.656c-0.377,0.008-2.349,1.723-3.13,2.409c-0.782,0.685-6.404,5.394-7.423,6.137
	c-0.91,0.663-1.764,1.166-2.549,1.183c-0.564,0.012-0.588-1.159-0.293-2.034c0.563-1.666,2.902-7.225,5.324-9.45
	c2.422-2.226,3.565-3.631,4.089-4.562c0.524-0.932,0.369-2.351,1.645-3.34c1.216-0.94,2.792-0.518,3.7-1.122
	C28.161,40.011,29.839,38.261,30.491,37.411z"/>
</svg>
