<?xml version="1.0" encoding="utf-8"?>
<svg version="1.1" id="Layer_1" xmlns="http://www.w3.org/2000/svg" xmlns:xlink="http://www.w3.org/1999/xlink" x="0px" y="0px"
	 width="84px" height="84px" viewBox="0 0 84 84" enable-background="new 0 0 84 84" xml:space="preserve">
<path fill="none" stroke="#FFFFFF" stroke-width="2" stroke-miterlimit="10" d="M19.422,25.87c0,0,22.424-0.092,26.176-0.188
	c3.752-0.095,5.814,0.708,8.983,2.006s9.52,4.368,11.304,5.416s3.75,3.611,4.46,7.252s0.446,6.309,0.296,7.975
	c-0.146,1.667-0.512,2.295-1.106,3.212c-0.595,0.917-1.649,2.37-2.248,3.145c-0.599,0.775-1.681,1.184-2.651,0.353
	c-0.972-0.831-5.26-4.999-6.965-6.761c-1.709-1.763-2.338-5.927,0.65-8.047c2.988-2.118,3.092-1.74,4.076-2.289
	c0.983-0.547,2.251-1.149,2.229-2.004c-0.02-0.855-0.982-1.306-1.742-1.286s-2.708-0.027-3.563-0.004
	c-0.855,0.021-1.558,0.419-2.635,1.016c-1.077,0.598-2.106,1.241-3.093,1.743c-0.984,0.499-0.932,0.688-1.74,0.708
	c-0.807,0.021-2.303-0.939-2.346-2.601c-0.043-1.661,0.854-1.922,1.507-2.414c0.653-0.492,1.351-1.032,1.325-2.077
	c-0.026-1.045-1.32-1.486-2.939-1.636s-3.051-0.351-5.141-0.298c-2.088,0.053-4.263,2.39-4.594,4.346s0.334,3.745,2.387,6.021
	c2.053,2.277,8.91,10.372,10.285,12.142c1.376,1.771,2.098,4.033,1.03,6.911c-1.068,2.878-1.028,2.544-1.755,3.94
	c-0.723,1.396-2.278,1.912-4.543,0.685c-2.265-1.225-23.982-12.23-27.829-14.453c-4.968-2.868-6.421-5.825-5.979-9.067
	c0.333-2.456,0.863-3.49,2.205-4.854c0.85-0.863,1.576-1.514,1.56-2.273c-0.026-0.949-2.067-2.75-2.102-4.128
	C14.889,26.981,16.24,25.95,19.422,25.87z"/>
</svg>
