<?xml version="1.0" encoding="utf-8"?>
<svg version="1.1" id="Layer_1" xmlns="http://www.w3.org/2000/svg" xmlns:xlink="http://www.w3.org/1999/xlink" x="0px" y="0px"
	 width="84px" height="84px" viewBox="0 0 84 84" enable-background="new 0 0 84 84" xml:space="preserve">
<path fill="none" stroke="#FFFFFF" stroke-width="2" stroke-miterlimit="10" d="M8.97,21.992c1.035,0,3.139,2.147,4.338,2.312
	c1.197,0.165,9.333,3.138,11.688,3.841c2.354,0.702,13.875,6.98,15.816,8.053c1.941,1.074,7.394,4.006,8.22,4.377
	c0.825,0.373,1.403,0.95,1.28,1.446c-0.124,0.496,0.289,1.074,0.949,1.322c0.661,0.248,10.572,5.369,12.596,6.401
	c2.023,1.032,4.668,3.055,5.576,4.005s2.107,2.891,2.809,2.891s1.334-0.346,1.776-0.579c0.629-0.33,1.683-0.02,1.683,0.877
	c0,0.899-2.882,2.913-4.491,3.779c-1.612,0.868-5.019,1.116-6.382,1.24c-1.362,0.124-1.766,0.031-2.045-0.496
	c-0.277-0.526-0.371-0.526-0.557-0.775c-0.186-0.248-0.558-0.433-1.301-0.526c-0.742-0.093-2.943,0.062-3.747,0
	c-0.806-0.062-1.767,0.155-2.447,0.372c-0.683,0.217-2.603,0.154-3.872-0.743c-1.27-0.899-2.787-2.417-3.562-3.129
	c-0.774-0.712-1.395-1.27-2.014-1.053c-0.619,0.217-0.773,0.835-0.99,1.301c-0.217,0.464-1.115,1.115-1.982,1.021
	c-0.867-0.092-5.08-2.291-7.001-4.026c-1.919-1.734-5.481-4.709-7.155-6.412c-1.672-1.704-3.096-4.491-3.746-5.358
	c-0.65-0.868-0.125-1.24,0.154-1.611c0.278-0.372,0.681-1.548-0.093-2.664c-0.774-1.115-4.771-6.194-5.606-7.249
	c-0.836-1.053-3.377-3.686-4.924-4.521c-1.551-0.837-2.851-1.642-3.904-2.107C8.981,23.519,8.3,23.209,8.3,22.776
	C8.3,22.342,8.526,21.992,8.97,21.992z"/>
</svg>
