<?xml version="1.0" encoding="utf-8"?>
<svg version="1.1" id="Layer_1" xmlns="http://www.w3.org/2000/svg" xmlns:xlink="http://www.w3.org/1999/xlink" x="0px" y="0px"
	 width="84px" height="84px" viewBox="0 0 84 84" enable-background="new 0 0 84 84" xml:space="preserve">
<path fill="none" stroke="#FFFFFF" stroke-width="2" stroke-miterlimit="10" d="M25.322,63.388c0,0,37.838-0.501,40.799-0.501
	c2.96,0,6.564-1.646,6.564-5.494c0-2.997-2.477-4.29-4.025-4.29c-1.48,0-2.729,0.51-2.729,1.792c0,1.283,0.587,1.832,0.587,2.572
	c0,0.739-0.746,0.685-3.285,0.685c-2.537,0-16.646-0.413-18.324-0.413c-2.27,0-2.565-0.32-3.059-1.555
	c-0.494-1.233-0.713-2.356-0.838-2.883c-0.149-0.62,0.295-1.754,1.331-1.754s2.541,0.514,4.071,0.515
	c2.208,0.001,4.502-1.946,4.502-3.969s-3.63-6.093-3.63-9.842c0-4.489,4.296-5.601,7.735-5.452c2.17,0.094,9.054,0.593,11.324,0
	c1.711-0.446,2.51-0.885,2.51-1.724c0-0.57-0.68-1.083-1.512-1.267c-2.535-0.56-8.107-2.016-9.51-2.288
	c-1.775-0.346-6.759,0.937-10.163,1.381c-3.403,0.443-4.193,0.69-5.624,0.69s-3.46-2.411-3.46-3.595
	c0-1.185,0.926-1.721,1.518-1.721c1.073,0,1.37,0.764,1.892,1.418c0.42,0.524,0.656,0.691,1.197,0.691c0.543,0,1.98-0.24,1.98-2.608
	c0-1.678-1.26-3.264-3.867-3.264c-1.381,0-3.897,0.938-4.638,3.652c-0.739,2.713-9.126,25.752-9.126,25.752
	c-0.643,1.529-2.863,8.141-3.059,8.732c-0.199,0.593-0.445,1.48-2.32,1.529c-1.873,0.05-10.015,0.444-11.594,0.544
	c-1.578,0.098-4.439,1.479-4.439,2.269c0,0.79,1.677,0.396,2.516,0.396S24.582,63.388,25.322,63.388z"/>
</svg>
