<?xml version="1.0" encoding="utf-8"?>
<svg version="1.1" id="Layer_1" xmlns="http://www.w3.org/2000/svg" xmlns:xlink="http://www.w3.org/1999/xlink" x="0px" y="0px"
	 width="84px" height="84px" viewBox="0 0 84 84" enable-background="new 0 0 84 84" xml:space="preserve">
<path fill="none" stroke="#FFFFFF" stroke-width="2" stroke-miterlimit="10" d="M59.703,23.016c1.51,0,3.387,0.507,4.811,0.896
	c1.426,0.389,5.137,1.771,6.215,3.712c1.078,1.942,5.447,14.877,5.914,16.745c0.303,1.209,0.604,3.668-3.539,5.611
	c-4.145,1.941-11.438,4.272-13.121,4.746c-1.684,0.475-3.15,1.425-3.928,2.288s-1.898,0.863-3.453,0.733
	c-1.553-0.13-2.373-0.086-3.367-0.086c-0.99,0-1.768,0.862-2.502,1.684c-0.734,0.819-1.338,1.64-2.891,1.64
	c-1.555,0-2.635-1.381-3.584-2.288c-0.949-0.905-1.553-1.424-3.236-1.855C35.34,56.409,11.645,49.677,9.4,48.813
	c-2.242-0.862-2.201-2.59-2.201-3.712s2.244-3.236,3.754-4.488c1.512-1.252,1.857-1.855,2.158-2.417
	c0.303-0.561,2.59-3.329,3.107-3.971c0.27-0.334,0.625-0.82,0.982-1.306s0.615-1.424-0.258-1.975
	c-0.875-0.55-1.619-1.229-1.619-1.974c0-0.745,0.766-3.852,4.219-3.852c2.891,0,11.707,4.66,13.033,5.21
	c0.709,0.295,2.287,0.819,3.766,1.495c1.293,0.589,2.508,1.292,3.01,2.056c1.779,2.704,0.814,6.247,2.547,8.242
	c1.984,2.288,2.736,2.271,4.316,3.367c2.545,1.769,4.834,2.288,4.834,3.237c0,1.036-4.92,2.827-4.92,3.668
	c0,1.294,2.584,0.907,4.1,0.907c1.898,0,3.352-2.24,3.453-2.59c0.129-0.453,9.775-17.146,10.551-19.023
	c0.777-1.877,0.822-2.837,0.369-3.679c-0.455-0.841-1.793-1.338-3.119-1.046c-1.328,0.291-3.689,0.162-3.689-2.007
	C57.793,23.76,58.688,23.016,59.703,23.016z"/>
</svg>
