<?xml version="1.0" encoding="utf-8"?>
<svg version="1.1" id="Layer_1" xmlns="http://www.w3.org/2000/svg" xmlns:xlink="http://www.w3.org/1999/xlink" x="0px" y="0px"
	 width="84px" height="84px" viewBox="0 0 84 84" enable-background="new 0 0 84 84" xml:space="preserve">
<path fill="none" stroke="#FFFFFF" stroke-width="2" stroke-miterlimit="10" d="M43.211,65.107c5.402,0,5.873-0.857,6.859-3.901
	c0.984-3.044,1.158-3.644,2.014-4.888c0.857-1.242,4.973-3.086,5.959-3.601s1.93-1.715,1.93-2.957c0-1.244-1.412-2.881-1.842-3.515
	c-0.816-1.201-0.539-1.938,0.256-3.131c0.857-1.286,2.658-3.772,3.215-4.544c0.559-0.771,0.922-0.835,1.266-0.792
	c0.342,0.042,1.5,0.127,1.715-0.815c0.215-0.943,1.158-7.417,1.158-9.988c0-2.572-1.352-3.988-3.152-3.988s-3.105,2.552-4.094,3.817
	c-1.008,1.286-2.262,2.893-2.648,3.45c-0.385,0.558-1.127,0.854-1.939,0.772c-4.715-0.471-8.295,0.858-12.689,1.522
	c-4.328,0.655-6.281,1.329-7.609,1.565c-1.402,0.249-1.887,1.071-2.229,1.886c-0.344,0.814-1.094,3.129-1.822,4.33
	c-0.729,1.201-1.094,1.458-2.465,1.458c-1.373,0-2.145-1.222-2.145-3c0-1.457,0.131-6.774,0.131-9.989
	c0-3.215-0.602-3.944-1.287-5.359s-1.018-1.762-1.727-2.903c-0.686-1.109-1.082-1.641-1.896-1.641s-1.352,0.472-1.352,1.672
	c0,1.201-0.557,35.84-0.557,38.755c0,2.916,1.715,4.115,3.088,4.115s3.301-0.814,3.301-2.958c0-2.144,0.127-4.629,0.127-6.43
	c0-1.8,0.986-2.315,2.059-2.315s1.865,0.921,1.865,2.036s0.047,3.157-0.064,4.222c-0.127,1.244-0.986,3.644-0.986,4.888
	s0.43,1.543,1.373,1.543S43.211,65.107,43.211,65.107z"/>
</svg>
