<?xml version="1.0" encoding="utf-8"?>
<svg version="1.1" id="Layer_1" xmlns="http://www.w3.org/2000/svg" xmlns:xlink="http://www.w3.org/1999/xlink" x="0px" y="0px"
	 width="84px" height="84px" viewBox="0 0 84 84" enable-background="new 0 0 84 84" xml:space="preserve">
<path fill="none" stroke="#FFFFFF" stroke-width="2" stroke-miterlimit="10" d="M11.715,26.389c0,0,3.547-0.702,4.972-0.939
	c1.425-0.237,2.611-0.039,3.284,0.91c0.671,0.949,4.707,7.517,5.457,8.388c0.754,0.871,10.445,9.771,12.068,11.314
	c1.621,1.542,2.413,2.69,2.888,2.69c0.476,0,1.672-0.459,2.572-0.237c0.901,0.222,2.057,1.029,2.571,1.543
	c0.514,0.514,2.135,0.594,2.928,0.594c0.79,0,20.849-0.04,23.381-0.04c2.531,0,4.549,0.237,4.549,2.137
	c0,1.898-1.701,5.459-9.02,5.459c-5.617,0-21.822,0.317-31.273,0.317c-1.692,0-0.861-1.306-1.603-1.306
	c-1.276,0-4.505,1.424-5.263,1.424c-3.955,0-8.109-0.317-11.195-4.075c-3.086-3.759-3.086-12.343-3.283-13.925
	c-0.197-1.583-0.316-2.454-0.949-2.611c-0.633-0.159-0.713-0.554-0.831-1.188c-0.119-0.632-1.227-2.729-2.018-3.916
	c-0.792-1.187-2.651-5.776,0.83-6.528"/>
</svg>
