<?xml version="1.0" encoding="utf-8"?>
<svg version="1.1" id="Layer_1" xmlns="http://www.w3.org/2000/svg" xmlns:xlink="http://www.w3.org/1999/xlink" x="0px" y="0px"
	 width="84px" height="84px" viewBox="0 0 84 84" enable-background="new 0 0 84 84" xml:space="preserve">
<path fill="none" stroke="#FFFFFF" stroke-width="2" stroke-miterlimit="10" d="M54.234,32.839c3.396-0.036,5.74,3.595,7.275,5.59
	c1.275,1.658,11.691,14.703,12.637,15.801c0.943,1.097,0.943,1.914,0.766,2.782c-0.18,0.868-0.792,2.68-2.273,2.68
	c-1.48,0-3.967-4.463-4.527-5.254c-0.562-0.792-1.393-1.358-2.338-1.358c-0.895,0-2.477-0.153-2.911-1.66
	c-0.434-1.505-0.28-0.995-0.638-2.195c-0.357-1.199-0.869-2.144-2.629-2.195c-1.762-0.051-3.082,0.025-3.904-1.735
	c-0.562-1.2,0.458-2.094,0.713-3.728c0.256-1.633,0.281-3.547-3.268-4.542c-3.549-0.997-6.203,0.823-8.346,3.19
	c-2.195,2.425-1.736,2.067-2.426,2.884c-0.689,0.817-0.384,0.537-1.404,0.639c-1.021,0.102-2.094,0.229-3.217,0.255
	c-1.123,0.026-1.428-0.255-1.557-0.97c-0.128-0.714-1.225-6.995-1.531-8.448c-0.309-1.456,0.127-2.222,0.459-2.937
	c0.331-0.715,0.199-0.523,0.461-1.097c0.254-0.562,0.74-1.532-0.053-1.89c-0.713-0.322-1.071,0.434-1.607,1.353
	c-0.536,0.918-1.635,2.782-2.578,3.879c-0.945,1.099-3.09,2.119-6.178,1.762c-3.195-0.37-5.563-2.119-6.994-3.625
	c-1.431-1.507-2.426-6.254-3.906-7.225c-1.48-0.969-3.701-0.306-4.594,0.306c-0.895,0.613-1.124,2.502,0.791,4.264
	c1.914,1.761,7.99,5.386,10.771,6.254c2.783,0.868,12.289,4.832,14.498,5.335c2.579,0.586,4.637,0.707,6.767-1.456
	c1.685-1.71,4.645-4.697,5.539-5.437c0.894-0.741,1.48-0.103,1.735,0.126c0.255,0.231,0.357,0.409,0.919,0.357
	C51.248,34.498,51.861,32.864,54.234,32.839z"/>
</svg>
