<?xml version="1.0" encoding="utf-8"?>
<svg version="1.1" id="Layer_1" xmlns="http://www.w3.org/2000/svg" xmlns:xlink="http://www.w3.org/1999/xlink" x="0px" y="0px"
	 width="84px" height="84px" viewBox="0 0 84 84" enable-background="new 0 0 84 84" xml:space="preserve">
<path fill="none" stroke="#FFFFFF" stroke-width="2" stroke-miterlimit="10" d="M42.036,19.41
	c-0.905-0.062-14.05,4.149-17.511,5.126c-3.529,0.998-6.205,3.872-6.512,8.291c-0.203,2.932,2.889,5.456,2.785,6.955
	c-0.076,1.098-1.037,1.179-2.358,0.549c-0.76-0.363-1.271-0.688-1.847-0.726c-0.785-0.055-1.625,0.698-1.693,1.686
	c-0.068,0.985,0.412,1.833,2.271,1.963c1.647,0.114,17.044-0.378,19.752-0.365c1.453,0.009,17.303-0.402,21.04-0.408
	c2.483-0.003,4.446-0.035,4.667,1.576c0.199,1.462-1.143,2.317-3.356,2.414c-2.215,0.096-36.347,4.028-38.122,4.307
	c-1.773,0.278-1.702,1.418-1.195,2.429c0.508,1.009,1.313,3.436,5.705,3.436c4.6,0,5.355-1.991,7.414-1.849
	c1.523,0.106,4.091,2.993,4.091,2.993s3.706,3.566,4.415,4.315c0.7,0.741,2.27,2.437,2.969,2.484c1.322,0.093,2.297-1,2.691-1.638
	c0.395-0.639,1.668-2.623,1.864-5.455c0.196-2.833-1.444-3.591-2.326-4.254c-0.882-0.662-2.097-1.157-2.097-2.189
	c0-0.747,0.605-0.967,1.514-0.97c0.926-0.002,17.758-0.577,19.462-0.559c1.635,0.018,1.901-0.208,2.37-0.966
	c0.02-0.032,0.039-0.065,0.061-0.099c0.335-0.499,1.086-1.824,1.389-2.658c0.186-0.514,0.1-1.072-0.306-1.751
	c-0.263-0.443-5.351-7.391-6.156-8.588c-0.636-0.947-2.253-3.428-5.248-3.635c-1.909-0.132-3.533,1.448-4.591,2.253
	c-1.061,0.804-2.07,1.276-4.109,1.135c-1.797-0.125-4.195-2.078-4.703-4.521c-0.508-2.444-1.227-8.601-1.396-9.591
	S42.811,19.463,42.036,19.41z"/>
</svg>
