<?xml version="1.0" encoding="utf-8"?>
<svg version="1.1" id="Layer_1" xmlns="http://www.w3.org/2000/svg" xmlns:xlink="http://www.w3.org/1999/xlink" x="0px" y="0px"
	 width="84px" height="84px" viewBox="0 0 84 84" enable-background="new 0 0 84 84" xml:space="preserve">
<path fill="none" stroke="#FFFFFF" stroke-width="2" stroke-miterlimit="10" d="M51.195,49.216
	c4.334,0.227,10.484,0.473,13.451,0.473c3.725,0,6.273,2.148,6.273,5.887c0,3.738-2.613,5.371-6.404,5.371
	c-3.008,0-43.787-0.86-45.549-0.86c-1.76,0-2.75-0.859-2.75-2.148c0-1.29,0-0.73,0-1.589c0-0.86-0.559-1.59-1.203-1.59
	s-1.934-0.688-1.934-2.148c0-1.461,1.084-3.254,1.084-3.254s6.299-13.454,7.248-15.655c0.039-0.091,0.068-0.164,0.09-0.212
	c0.516-1.246,0.65-2.095,0.291-3.052c-0.58-1.546-2.32-1.74-2.32-2.643c0-0.902,1.17-1.61,1.6-1.955s2.406-2.02,3.094-2.45
	s1.354-0.53,1.977,0.184c0.904,1.03-0.611,2.125-0.611,3.448c0,0.977,0.637,1.635,1.74,2.321c0.936,0.579,1.289,1.32,1.289,2.449
	c0,1.773-3.061,2.998-3.061,4.737c0,1.74,1.158,2.933,2.9,2.965c1.787,0.033,2.395,1.768,2.963,2.998
	c0.668,1.44,2.912,1.547,4.877,0.838c1.969-0.708,4.148-0.387,5.146,1.127c1,1.515,2.127,3.827,3.289,4.383
	C45.996,49.474,49.143,49.109,51.195,49.216z"/>
</svg>
