<?xml version="1.0" encoding="utf-8"?>
<svg version="1.1" id="Layer_1" xmlns="http://www.w3.org/2000/svg" xmlns:xlink="http://www.w3.org/1999/xlink" x="0px" y="0px"
	 width="84px" height="84px" viewBox="0 0 84 84" enable-background="new 0 0 84 84" xml:space="preserve">
<path fill="none" stroke="#FFFFFF" stroke-width="2" stroke-miterlimit="10" d="M11.171,54.96
	c-0.148,0.355-0.682,1.858-1.871,1.223c-1.188-0.635-2.695-1.416-3.066-1.796c-0.373-0.38-0.713-1.057,0.149-1.969
	c0.861-0.911,0.412-2.124,0.734-3.312c0.321-1.188,1.732-5.802,5.071-10.204c3.339-4.401,6.163-7.51,7.732-8.84
	c1.568-1.33,3.227-2.892,3.965-3.335c0.755-0.453,1.51-1.144,2.246-1.057c0.604,0.071,0.57,0.734,1.74,1.485
	c1.171,0.75,4.844,2.947,5.694,3.49c0.894,0.571,3.604,2.483,4.838,3.241c1.235,0.756,2.239,2.094,3.423,2.703
	c1.184,0.61,4.709,1.849,6.092,2.588c1.383,0.74,2.898,2.22,3.898,2.745c1,0.526,4.506,2.37,6.729,0.657
	c2.221-1.714,1.82-3.723,1.812-4.371c-0.004-0.646-0.007-3.071,1.348-3.775c1.354-0.705,3.84-1.368,5.165-1.662
	c1.794-0.398,6.741-1.302,7.331-0.552s0.254,1.449-0.786,3.143c-0.562,0.766-1.634,3.001-1.599,3.53
	c0.031,0.521,0.423,1.389,1.404,1.31c0.9-0.072,0.971-0.958,1.035-1.314c0.098-0.547,0.709-2.937,1.461-3.25
	c1.037-0.432,1.891,0.191,2.77,0.819s2.359,1.635,1.091,2.835s-8.741,7.731-13.687,8.476c-4.948,0.747-13.082-1.72-15.685-2.878
	c-2.604-1.158-6.509-4.486-6.788-4.662c-0.279-0.178-0.629-0.338-0.926,0.022c-0.293,0.36-0.684,0.761-1.482,0.259
	c-0.809-0.507-0.68-1.278-1.104-1.56c-0.423-0.281-5.342-4.112-6.115-4.684c-0.773-0.572-4.636-3.74-5.584-4.061
	c-0.949-0.32-3.138-0.345-7.219,3.17c-0.729,0.695-0.961,0.892-0.973,1.316c-0.01,0.424,0.204,0.692,0.539,1.031
	c0.333,0.338,0.455,0.816,0.031,1.442c-0.425,0.626-1.756,2.513-2.592,3.578c-0.836,1.063-2.332,3.303-2.596,3.578
	c-0.262,0.274-0.682,0.565-1.541,0.349c-0.86-0.217-1.324-0.106-2.033,1.276c-0.711,1.381-1.378,3.064-1.51,3.991
	c-0.131,0.926-0.009,2.69,0.32,3.285C10.965,53.819,11.309,54.622,11.171,54.96z"/>
</svg>
