<?xml version="1.0" encoding="utf-8"?>
<svg version="1.1" id="Layer_1" xmlns="http://www.w3.org/2000/svg" xmlns:xlink="http://www.w3.org/1999/xlink" x="0px" y="0px"
	 width="84px" height="84px" viewBox="0 0 84 84" enable-background="new 0 0 84 84" xml:space="preserve">
<path fill="none" stroke="#FFFFFF" stroke-width="2" stroke-miterlimit="10" d="M24.96,33.754
	c1.281-1.622,3.281-2.667,5.527-2.667c3.871,0,6.479,2.437,7.26,6.118c0.584,2.749-0.033,4.758-0.875,6.797
	c-0.576,1.399-1.656,2.572-0.906,3.237l17.02,14.434c1.643,1.094,2.822,1.63,5.404,1.687c0.574,0.013,15.215-0.401,16.129-0.428
	c0.969-0.026,1.746,0.046,1.617-0.673l-0.975-4.964c-0.303-0.864-0.529-0.9-1.848-0.865c-2.326,0.062-8.197-0.067-8.703-0.051
	c-0.338,0.014-1.861,0.093-2.498,0.188c-0.4,0.06-0.826,0.15-0.867,1.046c-0.012,0.322-0.033,0.767,0.037,1.522
	c0.023,0.26-0.232,0.876-1.08,0.861c-1.262-0.024-1.648,0.065-4.039,0.031c-2.375,0.091-3.414-1.79-3.453-2.552
	c-0.045-0.875,1.287-2.154,1.738-2.783c0.436-0.607-4.012-1.542-5.861-7.992c-1.264-4.417-0.842-5.582-2.129-10.251
	c-1.123-4.079-2.467-6.597-3.584-8.696c-1.516-2.851-2.236-3.138-7.186-6.88c-0.598-0.453-1.242-0.145-1.408,0.074
	c-2.713,3.554-5.307,7.732-5.4,7.693l-2.852,1.075c-0.33,0.146-1.098-0.128-1.385-0.443c-2.197-2.405-5.299-5.635-6.4-6.866
	c-0.311-0.346-0.586-0.707-1.26-0.425c-4.006,1.669-4.486,1.873-5.145,2.636c-0.277,0.427-3.332,6.532-3.809,7.383
	c-0.502,0.9,0.104,1.417,0.975,1.844c0.416,0.205,9.914,4.297,11.111,5.001c0.387,0.227,1.25,0.719,1.803-0.24
	C23.028,36.68,24.093,34.759,24.96,33.754z"/>
</svg>
