<?xml version="1.0" encoding="utf-8"?>
<svg version="1.1" id="Layer_1" xmlns="http://www.w3.org/2000/svg" xmlns:xlink="http://www.w3.org/1999/xlink" x="0px" y="0px"
	 width="84px" height="84px" viewBox="0 0 84 84" enable-background="new 0 0 84 84" xml:space="preserve">
<path fill="none" stroke="#FFFFFF" stroke-width="2" stroke-miterlimit="10" d="M68.924,31.292c0,0,2.098,13.836,2.098,17.149
	c0,1.267-2.291,5.359-4.094,5.359c-4.385,0-4.107,0.064-6.254,0.064c-2.143,0-1.461-3.93-2.533-3.93
	c-1.232,0-4.676-0.422-5.844-0.422c-0.619,0-1.547,3.698-2.75,3.698c-1.137,0-6.334-0.454-8.314-0.649
	c-0.871-0.086-0.207-4.087-1.051-4.12c-1.654-0.065-4.385,0.097-5.65-1.169c-1.268-1.268-4.191-3.378-5.262-4.45
	c-1.072-1.072-2.598-0.714-3.021,0.52c-0.34,0.994-2.533,16.695-3.117,18.252c-0.586,1.559-0.74,2.128-1.592,2.079
	c-0.361-0.021-0.965-1.757-1.955-2.722c-1.354-1.318-2.996-2.398-3.502-2.961c-1.266-1.413,0.52-2.681-0.064-3.654
	c-0.586-0.975-1.584-0.918-2.584-1.461c-1.281-0.699-1.623-2.468-0.957-3.622c0.459-0.796,5.879-10.036,6.561-11.399
	c0.684-1.365,1.268-1.917,2.209-1.917c1.625,0,4.467,4.319,5.652,4.319c0.553,0,0.891-1.129,1.271-1.8
	c1.146-2.014,2.689-4.921,3.859-4.921c0.678,0,2.479,1.072,3.117,1.429c4.742,2.64,8.453,4.574,9.225,4.904
	c1.363,0.584,14.225,1.949,16.078,1.949c1.85,0,3.215-0.292,3.215-2.436c0-1.754-2.34-8.899-2.34-11.822
	c0-2.923,0.324-6.397,1.82-6.397c1.525,0,1.297,1.169,1.688,2.338c0.225,0.669,0.371,2.201,1.051,2.396
	c0.508,0.146,1.848-0.778,2.197-0.253C68.535,26.322,68.566,29.019,68.924,31.292z"/>
</svg>
