<?xml version="1.0" encoding="utf-8"?>
<svg version="1.1" id="Layer_1" xmlns="http://www.w3.org/2000/svg" xmlns:xlink="http://www.w3.org/1999/xlink" x="0px" y="0px"
	 width="84px" height="84px" viewBox="0 0 84 84" enable-background="new 0 0 84 84" xml:space="preserve">
<path fill="none" stroke="#FFFFFF" stroke-width="2" stroke-miterlimit="10" d="M68.666,38.417
	c-3.377-1.038-4.141-1.761-4.188-3.698c-0.047-1.936,2.197-3.775,4.465-2.961c2.27,0.814,4.535,1.592,6.461,2.239
	c0.432,0.146,0.053,0.036,0.432,0.146c1.383,0.401,1.002,1.753,1.018,1.667c0,0-0.514,3.617-0.594,4.571
	c-0.078,0.953-0.076,1.428,0.424,1.52c0.498,0.089,1.033,0.155,1.033,0.155s1.148,0.058,1.148,1.549
	c0,1.302-0.047,1.401-0.002,3.256c0.076,3.106-2.861,4.937-5.104,4.99c-3.973,0.097-52.701-0.128-56.064-0.048
	c-1.172,0.029-1.904-0.146-2.43-1.011c-0.59-0.979,0.195-2.858-0.811-4.465c-1.008-1.607-3.455-1.649-5.57-2.719
	c-2.115-1.071-3.668-2.716-3.75-6.127c-0.082-3.413,4.551-7.144,8.422-7.237s9.225-0.031,12.332-0.107
	c3.26-0.079,4.805,0.56,4.867,3.208c0.025,1.004-0.342,1.89-0.977,2.615c-1.111,1.274-3.049,2.053-5.127,2.104
	c-2.154,0.051-7.207-0.167-8.48-0.136c-1.553,0.038-2.559,0.554-2.525,1.997c0.021,0.926,0.588,1.491,2.092,2.524
	c1.502,1.034,2.691,1.905,6.311,3.849c2.633,1.415,6.809,1.263,8.998,1.21c2.189-0.054,2.684-0.729,2.746-2.412
	c0.061-1.683,0.035-2.752,1.166-4.463C36.09,38.921,39.387,34,39.387,34c2.561-3.731,5.428-3.138,7.6-1.814
	c2.174,1.323,14.637,8.769,16.756,9.994c1.516,0.875,4.279,2.509,6.209,3.552c0.672,0.363,1.922-0.606,1.328-2.168
	s-1.076-3.252-1.25-3.812C69.791,38.979,69.207,38.583,68.666,38.417z"/>
</svg>
