<?xml version="1.0" encoding="utf-8"?>
<svg version="1.1" id="Layer_1" xmlns="http://www.w3.org/2000/svg" xmlns:xlink="http://www.w3.org/1999/xlink" x="0px" y="0px"
	 width="84px" height="84px" viewBox="0 0 84 84" enable-background="new 0 0 84 84" xml:space="preserve">
<path fill="none" stroke="#FFFFFF" stroke-width="2" stroke-miterlimit="10" d="M66.937,27.023
	c-0.004-0.283-0.073-0.393-0.16-1.038c-0.095-0.722,0.579-1.004,1.171-0.932c0.594,0.073,2.954,0.311,2.954,0.311
	c0.849,0.114,1.973-0.389,1.678-1.422c-0.119-0.414-0.595-0.622-2.1-0.532c-0.961,0.056-44.947,0.271-44.947,0.271
	c-0.924-0.013-1.35,0.527-1.076,1.076c0.164,0.329,0.327,0.606,0.64,1.185c0.208,0.386-0.441,0.958-1.659,1.682
	c-2.342,1.391-4.146,3.384-5.211,5.434c-1.064,2.05-4.459,11.718-4.967,13.617C12.752,48.572,11.458,57,11.38,57.989
	c-0.075,0.987,0.443,1.329,0.746,1.303c0.305-0.025,0.62-0.088,1.228-0.138c0.609-0.051,0.938,0.354,1.165,0.811
	c0.228,0.456,0.848,0.81,1.329,0.568c0.481-0.239,2.519-0.782,3.304-1.174c0.785-0.393,0.924-1.064,0.482-1.949
	c-0.443-0.887-2.807-6.633-3.186-7.395c-0.381-0.758-0.646-1.227-0.455-1.796c0.188-0.569,0.785-3.367,0.962-3.897
	c0.178-0.531,0.354-1.062,0.862-1.315c0.506-0.254,1.202-0.696,1.961-1.076c0.76-0.379,1.266-0.569,1.508-0.088
	c0.238,0.481,1.34,2.684,1.643,3.292c0.303,0.607,0.824,0.633,1.354,0.368c0.532-0.265,3.722-1.543,4.177-1.771
	c0.457-0.229,0.863-0.557,0.406-1.469c-0.455-0.911-4.174-7.216-4.691-8.317c-0.519-1.102-0.544-1.785-0.278-2.203
	c0.267-0.417,0.275-0.442,1.618-1.809c1.34-1.367,2.443-3.235,3.645-3.17c1.203,0.063,1.297,0.375,1.84,1.526
	c0.544,1.153,7.056,14.382,7.98,15.914c0.924,1.533,2.18,1.474,3.209,0.833c1.074-0.669,2.076-1.228,3.462-2.108
	c1.392-0.886,2.214-1.074,2.722-2.593c0.506-1.519-0.395-2.439,0.58-5.362c0.977-2.923,3.701-3.167,6.08-3.218
	c2.381-0.048,6.035-1.346,7.668-2.067c0.713-0.315,1.4-0.719,3.257-1.501C66.776,27.841,67.005,27.369,66.937,27.023z"/>
</svg>
