<?xml version="1.0" encoding="utf-8"?>
<svg version="1.1" id="Layer_1" xmlns="http://www.w3.org/2000/svg" xmlns:xlink="http://www.w3.org/1999/xlink" x="0px" y="0px"
	 width="84px" height="84px" viewBox="0 0 84 84" enable-background="new 0 0 84 84" xml:space="preserve">
<path fill="none" stroke="#FFFFFF" stroke-width="2" stroke-miterlimit="10" d="M8.991,41.677c0,0,5.1-2.283,6.352-2.747
	c1.25-0.461,1.875-0.502,2.719,0.476c0.843,0.979,3.304,4.495,3.766,5.044c1.143,1.36,2.721,2.23,4.65,2.23
	c1.455,0,3.037-1.046,3.698-1.605c0.79-0.665,1.157-2.621,1.116-3.603c-0.055-1.277-2.965-5.425-3.373-6.404
	c-0.408-0.98,0.027-1.169,0.707-1.115c0.68,0.055,1.361,0.055,2.067,0.815c0.706,0.761,1.276,1.387,1.468,2.013
	c0.191,0.625,0.68,1.577,1.522,1.687c0.845,0.108,2.204,0.271,2.53-0.19c0.326-0.463,0.19-0.762-0.408-1.768
	c-0.598-1.007-2.91-4.243-3.4-4.896c-0.488-0.652-0.209-0.959,0.66-1.095c0.53-0.083,6.696-0.759,13.129-1.645
	c4.123-0.566,8.355-1.22,11.285-1.857c7.506-1.632,17.243-4.867,18.031-5.113c0.788-0.245,1.414-0.272,1.631,0.082
	c0.219,0.353-0.081,0.735-0.869,1.794c-0.789,1.061-6.174,7.751-6.826,8.621c-0.653,0.871-1.549,1.741-2.91,2.094
	c-1.359,0.354-4.119,0.912-5.1,1.102c-0.979,0.191-1.379,0.073-2.024-0.802c-0.403-0.544-0.898-0.979-2.014-0.979
	c-1.116,0-1.878,1.287-2.42,1.876c-0.626,0.679-1.278,1.251-1.85,1.55c-0.571,0.299-1.169,0.299-2.013-0.054
	c-0.842-0.354-2.42-1.49-3.916-1.49c-1.278,0-3.006,0.646-3.875,2.386c-0.624,1.248-0.123,2.068-0.856,3.319
	c-0.733,1.25-2.312,1.142-3.128,1.957c-0.815,0.816-0.707,2.04-1.74,3.372c-1.033,1.333-6.581,3.4-7.505,5.221
	c-0.925,1.823-0.898,2.883-0.19,4.896c0.706,2.013,1.07,3.088,1.277,3.753c0.271,0.87,0.326,1.672-0.571,1.672
	c-0.585,0-2.094-1.469-3.521-2.489c-1.428-1.02-17.827-14.196-18.889-14.93c-1.06-0.734-1.414-1.142-1.414-1.753
	C6.788,42.494,8.202,41.99,8.991,41.677z"/>
</svg>
